<?xml version="1.0" encoding="UTF-8" standalone="no"?>
<!-- Generator: Adobe Illustrator 14.0.0, SVG Export Plug-In . SVG Version: 6.00 Build 43363)  -->

<svg
   xmlns:dc="http://purl.org/dc/elements/1.1/"
   xmlns:cc="http://creativecommons.org/ns#"
   xmlns:rdf="http://www.w3.org/1999/02/22-rdf-syntax-ns#"
   xmlns:svg="http://www.w3.org/2000/svg"
   xmlns="http://www.w3.org/2000/svg"
   xmlns:sodipodi="http://sodipodi.sourceforge.net/DTD/sodipodi-0.dtd"
   xmlns:inkscape="http://www.inkscape.org/namespaces/inkscape"
   version="1.1"
   id="Layer_1"
   x="0px"
   y="0px"
   width="1133.86px"
   height="340.16px"
   viewBox="0 0 1133.86 340.16"
   enable-background="new 0 0 1133.86 340.16"
   xml:space="preserve"
   inkscape:version="0.48.3.1 r9886"
   sodipodi:docname="logo liricus.svg"><metadata
   id="metadata109"><rdf:RDF><cc:Work
       rdf:about=""><dc:format>image/svg+xml</dc:format><dc:type
         rdf:resource="http://purl.org/dc/dcmitype/StillImage" /><dc:title></dc:title></cc:Work></rdf:RDF></metadata><defs
   id="defs107" /><sodipodi:namedview
   pagecolor="#ffffff"
   bordercolor="#666666"
   borderopacity="1"
   objecttolerance="10"
   gridtolerance="10"
   guidetolerance="10"
   inkscape:pageopacity="0"
   inkscape:pageshadow="2"
   inkscape:window-width="640"
   inkscape:window-height="480"
   id="namedview105"
   showgrid="false"
   inkscape:zoom="0.35983279"
   inkscape:cx="576.65673"
   inkscape:cy="170.08"
   inkscape:window-x="0"
   inkscape:window-y="27"
   inkscape:window-maximized="0"
   inkscape:current-layer="Layer_1" />
<g
   id="g3">
	<g
   id="g5">
		<g
   opacity="0.15"
   id="g7">
			<g
   id="g9">
				<g
   id="g11">
					<g
   id="g13">
						<path
   fill="#010101"
   d="M787.594,11.465c-50.771,0-91.929,41.156-91.929,91.925c0,50.769,41.158,91.927,91.929,91.927        c50.772,0,91.927-41.158,91.927-91.927C879.521,52.621,838.366,11.465,787.594,11.465z M787.594,157.415        c-29.835,0-54.02-24.188-54.02-54.024s24.185-54.02,54.02-54.02c29.837,0,54.021,24.184,54.021,54.02        S817.431,157.415,787.594,157.415z"
   id="path15" />
					</g>
				</g>
				<g
   id="g17">
					<g
   id="g19">
						<path
   fill="#010101"
   d="M590.729,11.465c-50.771,0-91.927,41.156-91.927,91.925c0,50.769,41.156,91.927,91.927,91.927        s91.93-41.158,91.93-91.927C682.659,52.621,641.5,11.465,590.729,11.465z M590.729,157.415        c-29.837,0-54.025-24.188-54.025-54.024s24.188-54.02,54.025-54.02c29.836,0,54.023,24.184,54.023,54.02        S620.565,157.415,590.729,157.415z"
   id="path21" />
					</g>
				</g>
				<g
   id="g23">
					<g
   id="g25">
						<path
   fill="#010101"
   d="M984.46,11.465c-50.772,0-91.931,41.156-91.931,91.925c0,50.769,41.158,91.927,91.931,91.927        c50.766,0,91.925-41.158,91.925-91.927C1076.385,52.621,1035.226,11.465,984.46,11.465z M984.46,157.415        c-29.842,0-54.02-24.188-54.02-54.024s24.178-54.02,54.02-54.02c29.831,0,54.019,24.184,54.019,54.02        S1014.291,157.415,984.46,157.415z"
   id="path27" />
					</g>
				</g>
			</g>
		</g>
		<g
   id="g29">
			<rect
   x="105.943"
   y="151.958"
   fill="#109BC1"
   width="80.653"
   height="38.156"
   id="rect31" />
			<g
   id="g33">
				<rect
   x="59.112"
   y="16.666"
   fill="#109BC1"
   width="38.16"
   height="173.449"
   id="rect35" />
				<rect
   x="213.481"
   y="16.666"
   fill="#109BC1"
   width="38.159"
   height="173.449"
   id="rect37" />
				<rect
   x="290.664"
   y="16.666"
   fill="#109BC1"
   width="38.159"
   height="173.449"
   id="rect39" />
				<rect
   x="438.96"
   y="16.666"
   fill="#109BC1"
   width="38.159"
   height="173.449"
   id="rect41" />
				<path
   fill="#109BC1"
   d="M825.186,64.595c10.134,9.818,16.429,23.571,16.429,38.795c0,29.836-24.184,54.024-54.021,54.024      c-29.835,0-54.02-24.188-54.02-54.024c0-14.632,5.819-27.908,15.266-37.635l-26.972-26.629      c-16.21,16.57-26.203,39.252-26.203,64.264c0,50.769,41.158,91.927,91.929,91.927c50.772,0,91.927-41.158,91.927-91.927      c0-25.862-10.677-49.23-27.869-65.932L825.186,64.595z"
   id="path43" />
				<path
   fill="#109BC1"
   d="M629.527,140.984c-9.818,10.131-23.576,16.431-38.798,16.431c-29.837,0-54.025-24.188-54.025-54.024      s24.188-54.02,54.025-54.02c14.636,0,27.908,5.816,37.635,15.265l26.632-26.972c-16.573-16.21-39.253-26.199-64.267-26.199      c-50.771,0-91.927,41.156-91.927,91.925c0,50.769,41.156,91.927,91.927,91.927c25.861,0,49.229-10.68,65.932-27.87      L629.527,140.984z"
   id="path45" />
				<path
   fill="#109BC1"
   d="M950.964,189.025c10.378,4.063,21.675,6.292,33.496,6.292c50.766,0,91.925-41.158,91.925-91.927      c0-5.657-0.511-11.189-1.49-16.562l-141.6-0.822c7.234-21.307,27.409-36.636,51.165-36.636c5.835,0,11.462,0.924,16.729,2.641      l5.946-37.731c-7.252-1.838-14.851-2.815-22.675-2.815c-50.772,0-91.931,41.156-91.931,91.925c0,5.867,0.551,11.602,1.6,17.165      l141.553,0.039c-7.183,21.401-27.406,36.82-51.222,36.82c-9.806,0-19-2.614-26.921-7.176L950.964,189.025z"
   id="path47" />
				<rect
   x="336.626"
   y="16.666"
   fill="#109BC1"
   width="80.656"
   height="38.159"
   id="rect49" />
			</g>
		</g>
	</g>
	<g
   id="g51">
		<path
   fill="#010101"
   d="M524.302,241.376c0-0.446,0.36-0.844,0.844-0.844h9.709c5.39,0,9.082,3.488,9.082,8.149    c0,3.413-2.258,5.896-4.341,7.085c2.341,0.993,5.309,3.152,5.309,7.227c0,4.962-3.934,8.56-9.665,8.56h-10.094    c-0.483,0-0.844-0.402-0.844-0.852V241.376z M535.603,268.584c3.229,0,5.592-2.443,5.592-5.63c0-3.151-2.886-5.451-6.339-5.451    h-7.327v11.081H535.603z M534.855,254.438c3.409,0,5.307-2.422,5.307-5.535c0-3.187-1.897-5.307-5.307-5.307h-7.227v10.842    H534.855z"
   id="path53" />
		<path
   fill="#010101"
   d="M560.892,241.376c0-0.446,0.405-0.844,0.848-0.844h1.775c0.446,0,0.829,0.397,0.829,0.844v29.325    c0,0.449-0.383,0.852-0.829,0.852h-1.775c-0.443,0-0.848-0.402-0.848-0.852V241.376z"
   id="path55" />
		<path
   fill="#010101"
   d="M582.267,240.892c0-0.442,0.406-0.805,0.848-0.805h1.11l19.982,24.904c0.044,0,0.044,0,0.079,0v-23.615    c0-0.446,0.362-0.844,0.852-0.844h1.548c0.45,0,0.853,0.397,0.853,0.844v29.813c0,0.441-0.402,0.805-0.853,0.805h-0.8    l-20.328-25.39h-0.061v24.097c0,0.449-0.346,0.852-0.827,0.852h-1.556c-0.441,0-0.848-0.402-0.848-0.852V240.892z"
   id="path57" />
		<path
   fill="#010101"
   d="M621.204,270.403l13.481-29.836c0.123-0.263,0.342-0.48,0.743-0.48h0.446c0.401,0,0.625,0.218,0.747,0.48    l13.382,29.836c0.284,0.56-0.084,1.149-0.748,1.149h-1.774c-0.407,0-0.669-0.262-0.748-0.485l-3.288-7.326h-15.729l-3.226,7.326    c-0.101,0.224-0.363,0.485-0.748,0.485h-1.774C621.299,271.553,620.941,270.963,621.204,270.403z M642.252,260.996    c-2.159-4.826-4.302-9.706-6.457-14.531h-0.366l-6.457,14.531H642.252z"
   id="path59" />
		<path
   fill="#010101"
   d="M663.748,241.376c0-0.446,0.345-0.844,0.825-0.844h11.489c5.303,0,9.666,4.157,9.666,9.442    c0,4.078-2.706,7.488-6.563,9.023l6.055,11.261c0.328,0.587,0,1.294-0.743,1.294h-2.26c-0.406,0-0.63-0.223-0.709-0.402    l-5.893-11.751h-8.459v11.302c0,0.449-0.401,0.852-0.843,0.852h-1.741c-0.48,0-0.825-0.402-0.825-0.852V241.376z M675.835,256.475    c3.414,0,6.383-2.828,6.383-6.456c0-3.375-2.969-6.26-6.383-6.26h-8.594v12.716H675.835z"
   id="path61" />
		<path
   fill="#010101"
   d="M708.172,256.615l-10.68-14.794c-0.363-0.586,0-1.289,0.707-1.289h2.077c0.307,0,0.568,0.218,0.708,0.397    l8.962,12.354l8.944-12.354c0.136-0.18,0.402-0.397,0.703-0.397h2.082c0.703,0,1.066,0.703,0.703,1.289l-10.793,14.755v14.125    c0,0.449-0.407,0.852-0.854,0.852h-1.734c-0.485,0-0.826-0.402-0.826-0.852V256.615z"
   id="path63" />
		<path
   fill="#010101"
   d="M754.572,240.892c0-0.442,0.384-0.805,0.83-0.805h1.11l19.978,24.904c0.065,0,0.065,0,0.102,0v-23.615    c0-0.446,0.349-0.844,0.83-0.844h1.557c0.437,0,0.843,0.397,0.843,0.844v29.813c0,0.441-0.406,0.805-0.843,0.805h-0.792    l-20.346-25.39h-0.039v24.097c0,0.449-0.362,0.852-0.848,0.852h-1.552c-0.446,0-0.83-0.402-0.83-0.852V240.892z"
   id="path65" />
		<path
   fill="#010101"
   d="M797.768,241.376c0-0.446,0.341-0.844,0.825-0.844h17.457c0.488,0,0.852,0.397,0.852,0.844v1.272    c0,0.44-0.363,0.848-0.852,0.848h-14.873v10.82h12.717c0.442,0,0.826,0.401,0.826,0.825v1.29c0,0.485-0.384,0.848-0.826,0.848    h-12.717v11.305h14.873c0.488,0,0.852,0.386,0.852,0.827v1.29c0,0.449-0.363,0.852-0.852,0.852h-17.457    c-0.484,0-0.825-0.402-0.825-0.852V241.376z"
   id="path67" />
		<path
   fill="#010101"
   d="M832.884,241.376c0-0.446,0.367-0.844,0.849-0.844h17.459c0.48,0,0.844,0.397,0.844,0.844v1.272    c0,0.44-0.363,0.848-0.844,0.848h-14.894v10.82h12.717c0.442,0,0.844,0.401,0.844,0.825v1.29c0,0.485-0.401,0.848-0.844,0.848    h-12.717v11.305h14.894c0.48,0,0.844,0.386,0.844,0.827v1.29c0,0.449-0.363,0.852-0.844,0.852h-17.459    c-0.481,0-0.849-0.402-0.849-0.852V241.376z"
   id="path69" />
		<path
   fill="#010101"
   d="M868.005,241.376c0-0.446,0.363-0.844,0.809-0.844h9.905c8.561,0,15.567,6.959,15.567,15.458    c0,8.599-7.007,15.563-15.567,15.563h-9.905c-0.445,0-0.809-0.402-0.809-0.852V241.376z M878.012,268.484    c7.27,0,12.56-5.189,12.56-12.494c0-7.266-5.29-12.45-12.56-12.45h-6.637v24.944H878.012z"
   id="path71" />
		<path
   fill="#010101"
   d="M908.01,266.888c0.218-0.262,0.441-0.563,0.663-0.825c0.446-0.586,0.927-0.949,1.557-0.406    c0.319,0.262,3.55,3.37,7.484,3.37c3.594,0,5.933-2.256,5.933-4.884c0-3.047-2.641-4.865-7.747-6.998    c-4.865-2.125-7.785-4.123-7.785-9.168c0-3.007,2.378-7.89,9.417-7.89c4.362,0,7.593,2.26,7.593,2.26    c0.262,0.14,0.787,0.665,0.262,1.513c-0.179,0.262-0.362,0.567-0.528,0.83c-0.402,0.625-0.844,0.804-1.552,0.402    c-0.319-0.184-3.108-2.042-5.814-2.042c-4.7,0-6.111,3.009-6.111,4.888c0,2.964,2.26,4.678,5.993,6.234    c5.973,2.443,9.827,4.708,9.827,9.849c0,4.604-4.38,7.974-9.564,7.974c-5.229,0-8.778-3.064-9.347-3.589    C907.926,268.099,907.479,267.736,908.01,266.888z"
   id="path73" />
		<path
   fill="#010101"
   d="M524.302,298.394c0-0.44,0.36-0.825,0.844-0.825h9.709c5.39,0,9.082,3.493,9.082,8.135    c0,3.433-2.258,5.894-4.341,7.1c2.341,0.971,5.309,3.151,5.309,7.231c0,4.943-3.934,8.532-9.665,8.532h-10.094    c-0.483,0-0.844-0.401-0.844-0.821V298.394z M535.603,325.603c3.229,0,5.592-2.439,5.592-5.63c0-3.152-2.886-5.451-6.339-5.451    h-7.327v11.081H535.603z M534.855,311.475c3.409,0,5.307-2.444,5.307-5.548c0-3.191-1.897-5.312-5.307-5.312h-7.227v10.859    H534.855z"
   id="path75" />
		<path
   fill="#010101"
   d="M560.892,298.394c0-0.44,0.405-0.825,0.848-0.825h1.775c0.446,0,0.829,0.385,0.829,0.825v29.352    c0,0.42-0.383,0.821-0.829,0.821h-1.775c-0.443,0-0.848-0.401-0.848-0.821V298.394z"
   id="path77" />
		<path
   fill="#010101"
   d="M582.267,297.909c0-0.442,0.406-0.786,0.848-0.786h1.11l19.982,24.887c0.044,0,0.044,0,0.079,0v-23.616    c0-0.44,0.362-0.825,0.852-0.825h1.548c0.45,0,0.853,0.385,0.853,0.825v29.832c0,0.446-0.402,0.787-0.853,0.787h-0.8    l-20.328-25.39h-0.061v24.122c0,0.42-0.346,0.821-0.827,0.821h-1.556c-0.441,0-0.848-0.401-0.848-0.821V297.909z"
   id="path79" />
		<path
   fill="#010101"
   d="M621.204,327.418l13.481-29.812c0.123-0.262,0.342-0.483,0.743-0.483h0.446    c0.401,0,0.625,0.222,0.747,0.483l13.382,29.812c0.284,0.589-0.084,1.148-0.748,1.148h-1.774c-0.407,0-0.669-0.262-0.748-0.48    l-3.288-7.31h-15.729l-3.226,7.31c-0.101,0.219-0.363,0.48-0.748,0.48h-1.774C621.299,328.566,620.941,328.007,621.204,327.418z     M642.252,318.036c-2.159-4.845-4.302-9.71-6.457-14.536h-0.366l-6.457,14.536H642.252z"
   id="path81" />
		<path
   fill="#010101"
   d="M663.748,298.394c0-0.44,0.345-0.825,0.825-0.825h11.489c5.303,0,9.666,4.156,9.666,9.425    c0,4.078-2.706,7.488-6.563,9.045l6.055,11.256c0.328,0.568,0,1.272-0.743,1.272h-2.26c-0.406,0-0.63-0.219-0.709-0.401    l-5.893-11.725h-8.459v11.305c0,0.42-0.401,0.821-0.843,0.821h-1.741c-0.48,0-0.825-0.401-0.825-0.821V298.394z M675.835,313.511    c3.414,0,6.383-2.846,6.383-6.478c0-3.371-2.969-6.238-6.383-6.238h-8.594v12.716H675.835z"
   id="path83" />
		<path
   fill="#010101"
   d="M708.172,313.634l-10.68-14.794c-0.363-0.563,0-1.271,0.707-1.271h2.077c0.307,0,0.568,0.223,0.708,0.385    l8.962,12.371l8.944-12.371c0.136-0.162,0.402-0.385,0.703-0.385h2.082c0.703,0,1.066,0.708,0.703,1.271l-10.793,14.75v14.155    c0,0.42-0.407,0.821-0.854,0.821h-1.734c-0.485,0-0.826-0.401-0.826-0.821V313.634z"
   id="path85" />
		<path
   fill="#010101"
   d="M752.577,323.929c0.22-0.262,0.438-0.591,0.665-0.853c0.441-0.581,0.927-0.922,1.552-0.398    c0.302,0.259,3.532,3.371,7.489,3.371c3.571,0,5.937-2.26,5.937-4.87c0-3.064-2.671-4.879-7.751-6.999    c-4.888-2.142-7.813-4.117-7.813-9.185c0-3.007,2.4-7.872,9.447-7.872c4.342,0,7.563,2.26,7.563,2.26    c0.267,0.122,0.809,0.646,0.267,1.499c-0.162,0.262-0.347,0.581-0.525,0.843c-0.401,0.626-0.848,0.787-1.556,0.408    c-0.302-0.189-3.086-2.043-5.792-2.043c-4.7,0-6.116,3.008-6.116,4.866c0,2.964,2.265,4.7,5.976,6.255    c5.976,2.423,9.827,4.683,9.827,9.832c0,4.6-4.38,7.97-9.564,7.97c-5.229,0-8.761-3.047-9.347-3.593    C752.473,325.117,752.049,324.755,752.577,323.929z"
   id="path87" />
		<path
   fill="#010101"
   d="M800.714,297.123c8.856,0,15.964,7.125,15.964,15.986c0,8.86-7.107,15.903-15.964,15.903    c-8.861,0-15.903-7.043-15.903-15.903C784.811,304.248,791.853,297.123,800.714,297.123z M800.714,325.927    c7.043,0,12.855-5.775,12.855-12.817c0-7.043-5.813-12.896-12.855-12.896s-12.796,5.854-12.796,12.896    C787.918,320.151,793.671,325.927,800.714,325.927z"
   id="path89" />
		<path
   fill="#010101"
   d="M832.363,298.394c0-0.44,0.338-0.825,0.821-0.825h1.736c0.446,0,0.853,0.385,0.853,0.825v27.209h12.752    c0.489,0,0.853,0.403,0.853,0.849v1.294c0,0.42-0.363,0.821-0.853,0.821h-15.341c-0.483,0-0.821-0.401-0.821-0.821V298.394z"
   id="path91" />
		<path
   fill="#010101"
   d="M861.924,298.394c0-0.44,0.407-0.825,0.854-0.825h1.691c0.489,0,0.835,0.385,0.835,0.825v18.487    c0,5.05,3.144,8.985,8.332,8.985c5.228,0,8.415-3.856,8.415-8.901v-18.571c0-0.44,0.362-0.825,0.848-0.825h1.675    c0.441,0,0.853,0.385,0.853,0.825v18.751c0,6.744-4.787,11.868-11.79,11.868c-6.964,0-11.712-5.124-11.712-11.868V298.394z"
   id="path93" />
		<path
   fill="#010101"
   d="M907.34,300.531h-7.711c-0.48,0-0.844-0.401-0.844-0.843v-1.295c0-0.44,0.363-0.825,0.844-0.825h18.794    c0.484,0,0.848,0.385,0.848,0.825v1.295c0,0.441-0.363,0.843-0.848,0.843h-7.712v27.214c0,0.42-0.402,0.821-0.845,0.821h-1.674    c-0.449,0-0.853-0.401-0.853-0.821V300.531z"
   id="path95" />
		<path
   fill="#010101"
   d="M933.036,298.394c0-0.44,0.385-0.825,0.827-0.825h1.774c0.445,0,0.853,0.385,0.853,0.825v29.352    c0,0.42-0.407,0.821-0.853,0.821h-1.774c-0.442,0-0.827-0.401-0.827-0.821V298.394z"
   id="path97" />
		<path
   fill="#010101"
   d="M968.053,297.123c8.861,0,15.943,7.125,15.943,15.986c0,8.86-7.082,15.903-15.943,15.903    c-8.856,0-15.903-7.043-15.903-15.903C952.149,304.248,959.196,297.123,968.053,297.123z M968.053,325.927    c7.043,0,12.835-5.775,12.835-12.817c0-7.043-5.792-12.896-12.835-12.896s-12.817,5.854-12.817,12.896    C955.235,320.151,961.01,325.927,968.053,325.927z"
   id="path99" />
		<path
   fill="#010101"
   d="M999.681,297.909c0-0.442,0.402-0.786,0.848-0.786h1.111l19.979,24.887c0.043,0,0.043,0,0.083,0v-23.616    c0-0.44,0.366-0.825,0.847-0.825h1.557c0.441,0,0.845,0.385,0.845,0.825v29.832c0,0.446-0.403,0.787-0.845,0.787h-0.808    l-20.328-25.39h-0.057v24.122c0,0.42-0.346,0.821-0.832,0.821h-1.552c-0.445,0-0.848-0.401-0.848-0.821V297.909z"
   id="path101" />
		<path
   fill="#010101"
   d="M1040.875,323.929c0.223-0.262,0.445-0.591,0.668-0.853c0.441-0.581,0.927-0.922,1.552-0.398    c0.324,0.259,3.555,3.371,7.493,3.371c3.59,0,5.933-2.26,5.933-4.87c0-3.064-2.646-4.879-7.751-6.999    c-4.865-2.142-7.79-4.117-7.79-9.185c0-3.007,2.378-7.872,9.425-7.872c4.359,0,7.585,2.26,7.585,2.26    c0.263,0.122,0.787,0.646,0.263,1.499c-0.18,0.262-0.363,0.581-0.521,0.843c-0.406,0.626-0.852,0.787-1.556,0.408    c-0.323-0.189-3.112-2.043-5.813-2.043c-4.7,0-6.116,3.008-6.116,4.866c0,2.964,2.265,4.7,5.993,6.255    c5.976,2.423,9.832,4.683,9.832,9.832c0,4.6-4.38,7.97-9.569,7.97c-5.229,0-8.774-3.047-9.342-3.593    C1040.796,325.117,1040.345,324.755,1040.875,323.929z"
   id="path103" />
	</g>
</g>
</svg>