<?xml version="1.0" encoding="UTF-8" standalone="no"?>
<!-- Generator: Adobe Illustrator 14.0.0, SVG Export Plug-In . SVG Version: 6.00 Build 43363)  -->

<svg
   xmlns:dc="http://purl.org/dc/elements/1.1/"
   xmlns:cc="http://creativecommons.org/ns#"
   xmlns:rdf="http://www.w3.org/1999/02/22-rdf-syntax-ns#"
   xmlns:svg="http://www.w3.org/2000/svg"
   xmlns="http://www.w3.org/2000/svg"
   xmlns:sodipodi="http://sodipodi.sourceforge.net/DTD/sodipodi-0.dtd"
   xmlns:inkscape="http://www.inkscape.org/namespaces/inkscape"
   version="1.1"
   id="Layer_1"
   x="0px"
   y="0px"
   width="850.39px"
   height="425.2px"
   viewBox="0 0 850.39 425.2"
   enable-background="new 0 0 850.39 425.2"
   xml:space="preserve"
   inkscape:version="0.48.3.1 r9886"
   sodipodi:docname="logo juan.svg"><metadata
   id="metadata176"><rdf:RDF><cc:Work
       rdf:about=""><dc:format>image/svg+xml</dc:format><dc:type
         rdf:resource="http://purl.org/dc/dcmitype/StillImage" /><dc:title></dc:title></cc:Work></rdf:RDF></metadata><defs
   id="defs174" /><sodipodi:namedview
   pagecolor="#ffffff"
   bordercolor="#666666"
   borderopacity="1"
   objecttolerance="10"
   gridtolerance="10"
   guidetolerance="10"
   inkscape:pageopacity="0"
   inkscape:pageshadow="2"
   inkscape:window-width="640"
   inkscape:window-height="480"
   id="namedview172"
   showgrid="false"
   inkscape:zoom="0.50329848"
   inkscape:cx="425.19501"
   inkscape:cy="212.60001"
   inkscape:window-x="338"
   inkscape:window-y="147"
   inkscape:window-maximized="0"
   inkscape:current-layer="Layer_1" />
































<radialGradient
   id="SVGID_1_"
   cx="196.1035"
   cy="213.1851"
   r="160.2699"
   gradientUnits="userSpaceOnUse">
	<stop
   offset="0"
   style="stop-color:#8A8C8E"
   id="stop68" />
	<stop
   offset="1"
   style="stop-color:#FFFFFF"
   id="stop70" />
</radialGradient>

<radialGradient
   id="SVGID_2_"
   cx="194.834"
   cy="197.52"
   r="160.2686"
   gradientUnits="userSpaceOnUse">
	<stop
   offset="0"
   style="stop-color:#8A8C8E"
   id="stop75" />
	<stop
   offset="0.4149"
   style="stop-color:#8B8D90"
   id="stop77" />
	<stop
   offset="0.5644"
   style="stop-color:#909295"
   id="stop79" />
	<stop
   offset="0.6709"
   style="stop-color:#999B9E"
   id="stop81" />
	<stop
   offset="0.757"
   style="stop-color:#A6A9AB"
   id="stop83" />
	<stop
   offset="0.8308"
   style="stop-color:#B8BABD"
   id="stop85" />
	<stop
   offset="0.8962"
   style="stop-color:#CFD0D2"
   id="stop87" />
	<stop
   offset="0.9538"
   style="stop-color:#E9EAEB"
   id="stop89" />
	<stop
   offset="0.9874"
   style="stop-color:#FFFFFF"
   id="stop91" />
</radialGradient>

<radialGradient
   id="SVGID_3_"
   cx="196.1025"
   cy="213.1831"
   r="160.2638"
   gradientUnits="userSpaceOnUse">
	<stop
   offset="0"
   style="stop-color:#8A8C8E"
   id="stop96" />
	<stop
   offset="1"
   style="stop-color:#FFFFFF"
   id="stop98" />
</radialGradient>




<g
   id="g3153"><path
     id="path3"
     d="M223.779,97.429c0,0,31.25,1.563,37.109,2.735s10.547,0.391,11.328,11.328  c0.781,10.938,3.672,23.008-13.672,14.454c-17.174-8.471-32.578-8.203-31.25,11.719c1.103,16.537,21.992,27.656,33.594,18.75  c13.428-10.309,11.718-1.952,13.281,5.859c1.563,7.812,1.563,28.515,1.563,28.515s4.296,11.719-14.844,7.813  c-19.141-3.906-48.299-7.9-47.656,0.796c0.781,10.571,16.484,34.478,8.203,47.251c-9.266,14.29-34.492,13.359-44.882-2.269  c-6.485-12.849,4.648-33.67,4.648-33.67s9.526-16.016-7.151-14.063c-16.677,1.954-33.984,10.356-35.818,0  c-1.563-8.827,1.758-25.273,1.563-30.467c-0.196-5.196-0.782-17.97-14.454-7.031c-13.671,10.936-20.703,14.843-32.421,5.468  s-2.734-25.781,3.516-29.297c6.25-3.516,15.871-5.165,25.781-4.688c7.305,0.353,14.453-2.734,14.843-7.812  c0.391-5.079-5.078-19.142,1.953-20.705c7.031-1.561,47.266-4.296,47.266-4.688c0-0.389,14.844-3.515,6.641-14.452  c-8.203-10.938-2.344-17.97,5.859-18.75c8.203-0.783,22.266-0.782,30.469,4.688c0,0,6.328,4.764,0.703,13.319  C224.326,90.789,221.592,95.398,223.779,97.429z"
     stroke="#FFFFFF"
     fill="#1E6B9D" /><path
     id="path5"
     d="M356.396,161.038"
     stroke-width="2"
     stroke="#EC008C"
     fill="none" /><path
     id="path7"
     d="M88.069,223.222c-14.176,2.484-25.554,5.284-34.22,8.148c-0.6,8.997-0.678,17.605-0.439,25.557  c8.694,3.046,20.146,6.34,34.83,9.312C87.243,253.265,87.031,238.877,88.069,223.222z"
     fill="none" /><path
     id="path9"
     d="M139.75,167.62c0.008-0.002,0.017-0.003,0.025-0.006c0.002-0.045,0.006-0.098,0.008-0.143  C139.771,167.521,139.76,167.569,139.75,167.62z"
     fill="none" /><path
     id="path11"
     d="M133.887,275.164c1.353,18.2,3.676,35.701,6.775,50.649c14.909,3.274,31.988,5.748,51.357,6.746  c-0.881-14.927-1.783-33.72-2.313-54.521C168.691,277.773,150.168,276.722,133.887,275.164z"
     fill="none" /><path
     id="path13"
     d="M53.496,259.417c0.445,11.478,1.529,21.454,2.612,29.063c8.906,6.862,21.901,15.289,39.455,22.938  c-2.96-11.594-5.695-25.958-7.13-42.782C73.806,265.706,62.309,262.452,53.496,259.417z"
     fill="none" /><path
     id="path15"
     d="M90.82,269.104c1.511,17.247,4.392,31.854,7.453,43.468c0.612,0.258,1.214,0.517,1.837,0.771  c10.509,4.299,23.175,8.504,38.082,11.922c-3.036-14.946-5.313-32.311-6.645-50.329C115.926,273.376,102.423,271.347,90.82,269.104z  "
     fill="none" /><path
     id="path17"
     d="M258.545,125.945c-4.937-2.435-9.725-4.143-14.014-4.874c2.348,12.55,4.134,25.483,5.462,38.452  c3.928,0.236,7.753-0.697,10.896-3.109c13.428-10.309,11.718-1.952,13.281,5.859c0.16,0.799,0.303,1.74,0.431,2.772  c7.492,1.243,14.628,2.645,21.352,4.14c-2.65-14.29-6.474-28.571-11.831-42.06c-3.682-1.099-7.501-2.133-11.424-3.107  C271.963,128.858,268.775,130.991,258.545,125.945z"
     fill="none" /><path
     id="path19"
     d="M227.295,137.664c0.743,11.139,10.463,19.809,20.275,21.568c-1.341-13.115-3.139-26.033-5.486-38.48  C232.765,119.976,226.423,124.583,227.295,137.664z"
     fill="none" /><path
     id="path21"
     d="M213.232,199.397c0.24,3.248,1.891,7.758,3.819,12.815c10.908,0.108,22.157,0.388,33.74,0.869  c-0.121-5.45-0.321-10.945-0.56-16.452C232.529,193.693,212.701,192.209,213.232,199.397z"
     fill="none" /><path
     id="path23"
     d="M81.421,139.31c6.388-8.904,12.563-16.621,18.51-23.371c-31.054,24.302-48.116,53.798-54.69,67.002  c-2.768,7.392-5.083,15.001-6.897,22.802c5.43-10.125,13.73-22.583,26.103-35.042C68.729,159.899,74.273,149.271,81.421,139.31z"
     fill="none" /><path
     id="path25"
     d="M94.293,117.587c4.387-3.613,8.878-6.987,13.467-10.13c14.832-15.265,28.034-24.436,39.193-30.495  c-39.358,16.624-71.809,46.477-91.771,83.95C63.976,147.693,76.661,132.111,94.293,117.587z"
     fill="none" /><path
     id="path27"
     d="M298.506,169.762c17.42,3.993,31.968,8.548,42.738,12.375c-0.167-0.676-0.329-1.349-0.504-2.029  c-2.829-10.96-6.863-22.99-12.599-35.234c-10.834-5.619-24.637-11.724-40.973-16.82  C291.986,140.603,295.773,154.537,298.506,169.762z"
     fill="none" /><path
     id="path29"
     d="M259.728,82.314c10.697,11.619,19.493,25.987,26.334,42.961c15.908,4.836,29.501,10.651,40.414,16.134  c-9.063-18.357-22.067-37.004-40.664-53.115C278.052,86.005,269.375,83.947,259.728,82.314z"
     fill="none" /><path
     id="path31"
     d="M33.628,242.362c-0.051,1.779-0.083,3.563-0.083,5.354c0,0.186,0.01,0.372,0.01,0.558  c3.174,1.799,8.77,4.609,17.381,7.766c-0.079-2.808-0.117-5.688-0.105-8.639c0.019-4.758,0.172-9.846,0.513-15.175  C41.532,235.697,35.666,239.222,33.628,242.362z"
     fill="none" /><path
     id="path33"
     d="M34.167,232.573c-0.166,2.04-0.302,4.089-0.401,6.147c3.407-3.109,9.416-6.177,17.756-9.063  c0.516-6.917,1.363-14.213,2.65-21.708C44.608,215.948,37.844,224.346,34.167,232.573z"
     fill="none" /><path
     id="path35"
     d="M136.725,170.682c-15.105,3.498-28.812,7.919-40.974,12.987c-0.621,2.667-1.187,5.366-1.677,8.107  c-1.646,9.947-2.766,19.492-3.458,28.616c11.901-1.985,25.371-3.696,40.225-5.037c0.357-6.32,0.866-12.469,1.54-18.354  C133.619,187.582,135.085,178.834,136.725,170.682z"
     fill="none" /><path
     id="path37"
     d="M54.036,228.814c9.052-2.933,20.547-5.656,34.198-8.018c0.693-9.372,1.836-19.186,3.529-29.418  c0.396-2.217,0.841-4.408,1.323-6.578c-14.363,6.213-26.471,13.329-36.076,20.858C55.571,213.52,54.617,221.29,54.036,228.814z"
     fill="none" /><path
     id="path39"
     d="M127.285,218.012c-13.843,1.351-26.103,2.986-36.842,4.802c-1.092,16.023-0.864,30.707,0.179,43.897  c11.574,2.26,25.086,4.308,40.758,5.883c-1.267-18.326-1.552-37.241-0.664-54.9C129.571,217.799,128.42,217.9,127.285,218.012z"
     fill="none" /><path
     id="path41"
     d="M54.794,204.509c1.75-9.267,4.199-18.792,7.567-28.251c-13.399,14.458-21.376,28.568-25.887,38.549  c-0.685,3.807-1.241,7.657-1.689,11.541C39.192,218.977,45.929,211.568,54.794,204.509z"
     fill="none" /><path
     id="path43"
     d="M260.889,198.601c-2.582-0.526-5.349-1.054-8.198-1.553c0.239,5.446,0.42,10.837,0.542,16.134  c15.416,0.673,31.387,1.689,47.84,3.095c-0.593-14.167-1.996-29.349-4.682-44.595c-6.768-1.522-13.963-2.952-21.528-4.219  c0.87,9.319,0.871,23.325,0.871,23.325S280.029,202.507,260.889,198.601z"
     fill="none" /><path
     id="path45"
     d="M174.05,196.647c-16.677,1.954-33.984,10.356-35.818,0c-1.278-7.219,0.709-19.527,1.368-26.615  c-0.124,0.027-0.253,0.053-0.377,0.08c-1.71,8.38-3.234,17.42-4.516,27.173c-0.656,5.732-1.155,11.714-1.511,17.859  c14.477-1.256,30.241-2.158,47.114-2.627c0.539-1.145,0.891-1.807,0.891-1.807S190.727,194.694,174.05,196.647z"
     fill="none" /><path
     id="path47"
     d="M125.342,159.149c-10.73,8.583-17.37,12.832-25.396,9.733c-1.309,3.922-2.5,7.93-3.532,12.036  c12.176-4.979,25.832-9.313,40.823-12.737c0.592-2.834,1.211-5.565,1.844-8.25C137.901,155.259,134.666,151.689,125.342,159.149z"
     fill="none" /><path
     id="path49"
     d="M96.436,135.32c4.781-2.689,11.537-4.282,18.884-4.67c10.264-16.783,22.257-30.829,33.479-41.74  c-14.71,5.251-27.679,12.136-39.039,19.851c-8.313,8.517-17.148,18.972-26.436,31.915c-5.912,8.24-10.73,16.958-14.637,25.907  c5.458-5.106,11.629-10.169,18.591-15.026C87.831,144.364,92.635,137.458,96.436,135.32z"
     fill="none" /><path
     id="path51"
     d="M250.081,274.438c0.773-18.243,1.161-38.331,0.759-59.049c-11.121-0.472-22.092-0.752-32.91-0.876  c4.184,10.956,8.862,23.874,3.505,32.136c-5.997,9.25-18.68,12.113-29.7,8.751c0.066,6.935,0.177,13.739,0.331,20.336  C209.637,275.902,228.921,275.526,250.081,274.438z"
     fill="none" /><path
     id="path53"
     d="M122.217,130.632c1.936,0.094,3.856-0.061,5.647-0.423c1.731-0.667,3.498-1.315,5.288-1.951  c2.241-1.341,3.736-3.194,3.909-5.437c0.27-3.508-2.253-11.296-1.525-16.297c-6.037,7.188-11.98,15.219-17.455,24.037  C119.448,130.545,120.829,130.566,122.217,130.632z"
     fill="none" /><path
     id="path55"
     d="M87.29,154.422c-7.982,5.683-14.889,11.632-20.838,17.586c-3.92,9.985-6.773,20.19-8.797,30.289  c9.777-7.333,21.876-14.236,36.075-20.26c1.164-4.839,2.551-9.542,4.093-14.132c-1.557-0.824-3.178-1.908-4.903-3.288  C89.273,161.7,87.633,158.101,87.29,154.422z"
     fill="none" /><path
     id="path57"
     d="M200.231,278.104c-2.747,0-5.441-0.018-8.109-0.043c0.519,20.896,1.409,39.704,2.277,54.604  c15.765,0.708,33.013,0.436,51.792-1.157c1.329-14.111,2.822-33.056,3.788-54.73C232.108,277.688,215.54,278.104,200.231,278.104z"
     fill="none" /><path
     id="path59"
     d="M298.938,172.266c2.342,13.741,3.843,28.503,4.486,44.22c14.359,1.255,29.077,2.807,44.103,4.683  c-0.858-10.752-2.534-23.162-5.621-36.307C331.276,181.031,316.631,176.365,298.938,172.266z"
     fill="none" /><path
     id="path61"
     d="M253.279,215.494c0.216,10.784,0.216,21.188,0.066,30.938c-0.148,9.621-0.438,18.961-0.821,27.873  c14.921-0.8,30.768-1.954,47.569-3.509c1.147-15.901,1.743-33.735,1.08-52.16C285.033,217.247,269.028,216.196,253.279,215.494z"
     fill="none" /><path
     id="path63"
     d="M248.594,331.304c14.113-1.274,29.069-3.284,44.912-6.195c1.767-10.13,4.647-28.871,6.411-51.944  c-16.771,1.545-32.589,2.688-47.497,3.482C251.446,298.2,249.94,317.126,248.594,331.304z"
     fill="none" /><path
     id="path65"
     d="M176.553,244.38c-4.706-9.323-0.136-22.839,2.726-29.557c-15.986,0.465-31.449,1.341-46.21,2.651  c-0.917,17.799-0.633,36.889,0.651,55.352c16.284,1.566,34.839,2.625,55.929,2.889c-0.164-6.867-0.281-13.955-0.348-21.173  C184.256,252.524,179.716,249.137,176.553,244.38z"
     fill="none" /><path
     id="path72"
     d="M242.084,120.751c2.347,12.447,4.145,25.365,5.486,38.48c0.809,0.144,1.618,0.242,2.423,0.292  c-1.329-12.969-3.114-25.902-5.462-38.452C243.697,120.929,242.878,120.818,242.084,120.751z"
     fill="url(#SVGID_1_)" /><path
     id="path93"
     d="M362.18,190.515c-0.217-0.105-6.76-3.219-18.285-7.422c-0.279-1.161-0.564-2.323-0.866-3.493  c-2.648-10.277-6.353-21.482-11.491-32.927c15.359,8.283,23.89,15.089,24.119,15.276l1.479-1.819  c-0.245-0.199-9.904-7.908-27.205-16.95c-8.619-18.212-20.991-36.85-38.715-53.208c16.945,5.53,29.042,12.056,36.915,17.221  c4.648,4.393,8.637,8.834,11.466,13.145l1.959-1.286c-0.751-1.145-1.579-2.296-2.472-3.45c0.397,0.377,0.612,0.598,0.637,0.625  l1.711-1.602c-0.113-0.12-3.802-3.951-11.676-9.153c-10.86-10.303-25.144-20.22-36.942-27.681  c13.466,5.885,26.284,13.416,38.241,22.536l2.132-2.794c-17.472-13.328-36.744-23.334-57.186-29.815  c-2.926-1.656-4.803-2.666-5.186-2.87l-0.61,1.142c-7.159-2.015-14.45-3.606-21.849-4.76c-1.127-0.534-2.241-1.078-3.393-1.596  l-0.466,1.036c-8.445-1.14-17.021-1.725-25.694-1.725c-104.09,0-188.774,84.683-188.774,188.773c0,9.341,0.689,18.728,2.047,27.899  l3.478-0.515c-1.175-7.935-1.808-16.033-1.95-24.122c3.503,1.894,9.159,4.594,17.414,7.564c0.396,10.738,1.363,20.252,2.388,27.81  c-8.432-6.815-12.424-11.632-12.507-11.734l-1.818,1.479c0.091,0.112,4.811,5.812,14.802,13.616  c1.38,9.311,2.713,14.907,2.742,15.023l2.278-0.552c-0.05-0.206-1.115-4.753-2.304-12.401c9.259,6.911,22.363,15.117,39.715,22.506  c5.319,19.784,11.064,30.712,11.199,30.961l2.063-1.112c-0.129-0.239-5.433-10.344-10.527-28.697  c0.002,0.002,0.004,0.002,0.005,0.003c10.897,4.468,24.082,8.84,39.663,12.348c3.018,14.181,6.735,26.006,10.984,33.866l2.062-1.114  c-4.067-7.524-7.64-18.745-10.567-32.209c14.847,3.202,31.803,5.606,50.963,6.58c1.198,19.827,2.315,32.251,2.339,32.514  l2.334-0.213c-0.047-0.52-1.131-12.733-2.294-32.191c5.348,0.237,10.856,0.368,16.543,0.368c10.983,0,22.614-0.477,34.883-1.504  c-1.414,14.65-2.587,23.518-2.644,23.93l2.322,0.315c0.029-0.211,1.251-9.33,2.722-24.445c14.051-1.254,28.955-3.256,44.706-6.124  c-0.656,3.627-1.08,5.655-1.102,5.758l2.292,0.485c0.023-0.111,0.518-2.48,1.27-6.691c2.379-0.445,4.771-0.904,7.189-1.39  l-0.461-2.298c-2.12,0.426-4.204,0.813-6.293,1.207c1.796-10.431,4.598-28.996,6.317-51.688c13.558-1.272,27.721-2.804,42.538-4.629  l-0.286-2.325c-14.656,1.806-28.662,3.319-42.077,4.586c1.129-15.798,1.711-33.477,1.067-51.74  c14.651,1.29,29.407,2.864,44.184,4.714c1.446,20.553-0.069,34.459-0.094,34.682l2.329,0.265c0.026-0.222,1.539-14.104,0.131-34.651  c2.836,0.36,5.673,0.729,8.509,1.11l0.313-2.323c-3.011-0.405-6.01-0.794-8.998-1.173c-0.822-10.563-2.428-22.732-5.368-35.642  c10.495,3.885,16.424,6.705,16.629,6.805L362.18,190.515z M340.74,180.108c0.175,0.68,0.336,1.353,0.504,2.029  c-10.77-3.827-25.318-8.383-42.738-12.375c-2.733-15.226-6.52-29.16-11.338-41.708c16.336,5.096,30.139,11.201,40.973,16.82  C333.877,157.119,337.911,169.148,340.74,180.108z M326.476,141.409c-10.913-5.483-24.505-11.297-40.414-16.134  c-6.841-16.974-15.637-31.342-26.334-42.961c9.648,1.633,18.325,3.69,26.084,5.979C304.408,104.405,317.412,123.052,326.476,141.409  z M279.993,72.76c9.905,5.841,25.287,15.458,38.506,26.088c-8.118-4.269-18.546-8.771-31.498-12.633  c-8.14-7.009-17.338-13.532-27.723-19.351C266.306,68.422,273.218,70.392,279.993,72.76z M251.328,65.287  c11.319,5.709,21.303,12.248,30.113,19.354c-7.381-1.982-15.51-3.74-24.424-5.137c-6.178-6.267-12.95-11.667-20.296-16.192  C241.634,63.778,246.505,64.438,251.328,65.287z M194.273,64.085c-4.736,2.788-11.05,7.449-17.941,15.118  c-6.255,1.14-12.394,2.594-18.411,4.361c10.078-8.857,18.913-14.797,24.346-17.479C186.226,65.29,190.229,64.623,194.273,64.085z   M171.595,68.562c1.045-0.274,2.094-0.537,3.146-0.794c-5.998,3.873-13.685,9.728-21.986,17.394  c-12.256,4.014-23.994,9.358-35.182,16.017c21.557-19.827,39.11-26.746,51.188-31.493C169.762,69.292,170.695,68.924,171.595,68.562  z M146.953,76.962c-11.159,6.06-24.361,15.23-39.193,30.495c-4.589,3.144-9.081,6.518-13.467,10.13  c-17.632,14.523-30.317,30.106-39.11,43.325C75.144,123.438,107.595,93.585,146.953,76.962z M45.24,182.941  c6.575-13.204,23.637-42.7,54.69-67.002c-5.947,6.75-12.122,14.467-18.51,23.371c-7.147,9.962-12.692,20.59-16.975,31.391  c-12.373,12.46-20.673,24.918-26.103,35.042C40.157,197.942,42.473,190.333,45.24,182.941z M36.474,214.807  c4.511-9.981,12.488-24.09,25.887-38.549c-3.368,9.459-5.818,18.984-7.567,28.251c-8.865,7.06-15.602,14.468-20.009,21.839  C35.233,222.464,35.789,218.613,36.474,214.807z M131.379,272.594c-15.672-1.575-29.184-3.623-40.758-5.883  c-1.043-13.19-1.271-27.874-0.179-43.897c10.739-1.815,23-3.451,36.842-4.802c1.136-0.111,2.287-0.213,3.431-0.318  C129.827,235.353,130.112,254.268,131.379,272.594z M130.84,215.354c-14.854,1.341-28.324,3.052-40.225,5.037  c0.692-9.124,1.812-18.668,3.458-28.616c0.49-2.741,1.056-5.439,1.677-8.107c12.162-5.067,25.869-9.489,40.974-12.987  c-1.639,8.152-3.106,16.899-4.344,26.318C131.707,202.886,131.198,209.035,130.84,215.354z M91.763,191.379  c-1.693,10.232-2.836,20.046-3.529,29.418c-13.651,2.361-25.146,5.085-34.198,8.018c0.581-7.524,1.535-15.295,2.974-23.156  c9.605-7.529,21.713-14.645,36.076-20.858C92.604,186.971,92.16,189.162,91.763,191.379z M50.831,247.401  c-0.012,2.95,0.027,5.831,0.105,8.639c-8.611-3.156-14.207-5.967-17.381-7.766c0-0.186-0.01-0.372-0.01-0.558  c0-1.791,0.032-3.575,0.083-5.354c2.038-3.141,7.904-6.665,17.716-10.136C51.003,237.556,50.85,242.644,50.831,247.401z   M33.767,238.721c0.099-2.059,0.235-4.107,0.401-6.147c3.676-8.228,10.44-16.625,20.006-24.624  c-1.287,7.495-2.134,14.791-2.65,21.708C43.183,232.544,37.173,235.611,33.767,238.721z M53.85,231.37  c8.666-2.864,20.044-5.664,34.22-8.148c-1.038,15.655-0.826,30.043,0.171,43.017c-14.685-2.972-26.136-6.266-34.83-9.312  C53.172,248.976,53.25,240.367,53.85,231.37z M56.107,288.479c-1.083-7.608-2.167-17.585-2.612-29.063  c8.813,3.035,20.311,6.289,34.936,9.218c1.436,16.824,4.17,31.188,7.13,42.782C78.009,303.769,65.014,295.342,56.107,288.479z   M100.109,313.344c-0.623-0.255-1.225-0.514-1.837-0.771c-3.061-11.613-5.941-26.221-7.453-43.468  c11.603,2.242,25.106,4.271,40.727,5.832c1.332,18.019,3.609,35.383,6.645,50.329C123.285,321.848,110.618,317.643,100.109,313.344z   M140.662,325.813c-3.099-14.948-5.422-32.449-6.775-50.649c16.281,1.558,34.805,2.609,55.819,2.874  c0.529,20.802,1.432,39.595,2.313,54.521C172.65,331.562,155.57,329.088,140.662,325.813z M191.735,255.399  c-0.822-0.251-1.634-0.537-2.435-0.857c0.067,7.218,0.185,14.306,0.348,21.173c-21.09-0.264-39.645-1.322-55.929-2.889  c-1.284-18.463-1.568-37.553-0.651-55.352c14.761-1.311,30.224-2.187,46.21-2.651c0.384-0.901,0.735-1.676,1.031-2.306  c-16.873,0.469-32.637,1.371-47.114,2.627c0.355-6.146,0.854-12.127,1.511-17.859c1.282-9.753,2.806-18.792,4.516-27.173  c0.125-0.027,0.253-0.053,0.377-0.08c0.084-0.902,0.143-1.707,0.174-2.418c-0.008,0.002-0.017,0.003-0.025,0.006  c0.011-0.05,0.022-0.098,0.033-0.149c0.018-0.478,0.026-0.92,0.013-1.291c-0.063-1.653-0.166-4.071-0.715-6.25  c-0.632,2.685-1.252,5.416-1.844,8.25c-14.991,3.424-28.647,7.759-40.823,12.737c1.032-4.106,2.223-8.114,3.532-12.036  c-0.696-0.268-1.402-0.596-2.123-0.977c-1.542,4.59-2.93,9.293-4.093,14.132c-14.199,6.024-26.298,12.927-36.075,20.26  c2.024-10.099,4.876-20.304,8.797-30.289c5.949-5.954,12.855-11.903,20.838-17.586c-0.088-0.953-0.083-1.911-0.01-2.866  c-6.961,4.857-13.133,9.92-18.591,15.026c3.907-8.949,8.725-17.667,14.637-25.907c9.287-12.943,18.123-23.398,26.436-31.915  c11.359-7.715,24.329-14.6,39.039-19.851c-11.222,10.911-23.216,24.957-33.479,41.74c0.912-0.048,1.833-0.078,2.76-0.089  c5.475-8.818,11.418-16.849,17.455-24.037c0.326-2.241,1.303-3.923,3.479-4.407c0.113-0.025,0.257-0.052,0.387-0.077  c4.904-5.524,9.812-10.493,14.523-14.863c6.347-2.043,13-3.784,19.976-5.159c-0.149,0.178-0.296,0.348-0.446,0.529  c-3.694,4.476-7.693,10.104-11.734,17.093c0.954-0.083,1.906-0.165,2.855-0.245c3.625-6.111,7.196-11.105,10.516-15.148  c0.834-1.016,1.663-1.98,2.484-2.907c4.263-0.749,8.647-1.355,13.145-1.818c-0.4-0.766-0.734-1.51-0.991-2.226  c-3.219,0.349-6.418,0.748-9.579,1.254c3.353-3.489,6.535-6.245,9.413-8.422c1.369-3.419,4.977-5.498,9.217-5.9  c0.102-0.01,0.216-0.018,0.32-0.027c0.745-0.357,1.415-0.656,1.979-0.888c4.146-0.396,8.33-0.66,12.55-0.776  c-0.251,0.52-0.493,1.061-0.74,1.591c0.815,0.071,1.631,0.159,2.445,0.263c0.301-0.635,0.599-1.279,0.907-1.897  c0.854-0.013,1.706-0.033,2.562-0.033c1.958,0,3.91,0.04,5.858,0.1c0.751,1.639,1.476,3.314,2.188,5.005  c0.838,0.412,1.649,0.852,2.398,1.351c0,0,0.541,0.41,1.166,1.199c-1.011-2.54-2.06-5.031-3.154-7.461  c1.355,0.06,2.707,0.136,4.057,0.224c8.106,4.493,15.323,9.89,21.714,16.036c-6.313-0.891-13.001-1.599-20.079-2.08  c-0.225-0.629-0.458-1.247-0.688-1.871c0.072,1.312-0.146,2.825-0.848,4.53c2.079,5.987,3.952,12.231,5.643,18.677  c0.8,0.048,1.617,0.098,2.439,0.148c-1.703-6.564-3.594-12.945-5.702-19.075c7.817,0.556,15.149,1.392,22.011,2.442  c11.741,12.127,20.591,26.799,27.208,42.687c-3.283-0.953-6.668-1.858-10.136-2.713c-0.015,0.838-0.069,1.631-0.18,2.361  c3.923,0.974,7.742,2.009,11.424,3.107c5.357,13.489,9.18,27.77,11.831,42.06c-6.724-1.496-13.86-2.897-21.352-4.14  c0.095,0.757,0.182,1.568,0.261,2.418c7.565,1.267,14.76,2.697,21.528,4.219c2.686,15.246,4.089,30.429,4.682,44.595  c-16.453-1.406-32.424-2.422-47.84-3.095c-0.122-5.296-0.302-10.688-0.542-16.134c-0.813-0.142-1.633-0.282-2.458-0.419  c0.238,5.507,0.438,11.002,0.56,16.452c-11.583-0.481-22.832-0.76-33.74-0.869c0.289,0.754,0.582,1.522,0.878,2.3  c10.817,0.124,21.789,0.404,32.91,0.876c0.401,20.718,0.014,40.806-0.759,59.049c-21.16,1.089-40.444,1.465-58.014,1.298  C191.913,269.139,191.801,262.334,191.735,255.399z M246.192,331.507c-18.78,1.593-36.028,1.865-51.792,1.157  c-0.868-14.899-1.758-33.707-2.277-54.604c2.667,0.025,5.362,0.043,8.109,0.043c15.309,0,31.876-0.415,49.748-1.327  C249.014,298.451,247.521,317.396,246.192,331.507z M293.506,325.108c-15.843,2.911-30.799,4.921-44.912,6.195  c1.346-14.178,2.852-33.104,3.826-54.657c14.908-0.794,30.726-1.938,47.497-3.482C298.153,296.237,295.273,314.979,293.506,325.108z   M300.093,270.797c-16.801,1.555-32.647,2.709-47.569,3.509c0.383-8.912,0.673-18.252,0.821-27.873  c0.15-9.751,0.15-20.154-0.066-30.938c15.749,0.702,31.754,1.753,47.894,3.143C301.835,237.062,301.24,254.896,300.093,270.797z   M347.526,221.169c-15.025-1.876-29.743-3.428-44.103-4.683c-0.643-15.717-2.145-30.479-4.486-44.22  c17.693,4.099,32.338,8.765,42.968,12.596C344.992,198.007,346.668,210.417,347.526,221.169z"
     fill="url(#SVGID_2_)" /><path
     id="path100"
     d="M133.152,128.258c-1.79,0.636-3.557,1.284-5.288,1.951  C129.846,129.807,131.665,129.148,133.152,128.258z"
     fill="url(#SVGID_3_)" /><path
     id="path102"
     d="M191.989,214.536c8.514-0.129,17.18-0.124,25.941-0.023c-0.297-0.778-0.59-1.546-0.878-2.3  c-8.555-0.086-16.905-0.07-25.007,0.052c0.423-16.595,1.233-33.336,2.575-49.561c18.794-0.99,36.741-0.383,53.43,1.223  c1.018,10.86,1.711,21.813,2.183,32.702c0.825,0.137,1.645,0.277,2.458,0.419c-0.473-10.801-1.189-21.833-2.23-32.885  c8.491,0.872,16.64,2,24.401,3.299c-0.079-0.85-0.166-1.661-0.261-2.418c-7.758-1.287-15.898-2.401-24.375-3.262  c-0.074-0.754-0.156-1.507-0.233-2.26c-0.806-0.049-1.614-0.147-2.423-0.292c0.079,0.774,0.174,1.542,0.25,2.318  c-16.574-1.576-34.374-2.168-53.002-1.204c1.306-15.152,3.086-29.816,5.456-43.451c14.609-0.704,28.436-0.093,41.372,1.438  c0.155,0.797,0.287,1.618,0.438,2.419c0.794,0.066,1.613,0.178,2.447,0.319c-0.151-0.811-0.297-1.627-0.454-2.435  c10.124,1.298,19.673,3.161,28.622,5.382c0.111-0.73,0.166-1.523,0.18-2.361c-9.148-2.255-18.92-4.136-29.275-5.432  c-1.223-6.092-2.59-12.071-4.105-17.908c-0.823-0.05-1.64-0.101-2.439-0.148c1.514,5.771,2.885,11.7,4.112,17.764  c-12.687-1.465-26.211-2.051-40.479-1.396c2.383-13.208,5.339-25.399,8.976-36.059c0.475-0.003,0.941-0.02,1.417-0.02  c0.096,0,0.186,0,0.281,0c6.954,0,13.584,0.217,19.908,0.613c0.049,0.139,0.094,0.282,0.142,0.421  c0.701-1.705,0.92-3.218,0.848-4.53c-0.601-1.634-1.216-3.253-1.85-4.848c-0.625-0.79-1.166-1.199-1.166-1.199  c-0.749-0.499-1.561-0.938-2.398-1.351c1.247,2.962,2.44,5.995,3.571,9.11c-6.073-0.362-12.415-0.561-19.055-0.561  c-0.091,0-0.191,0-0.283,0c-0.197,0-0.393,0.004-0.59,0.006c1.498-4.179,3.115-8.087,4.841-11.729  c-0.814-0.104-1.63-0.192-2.445-0.263c-1.74,3.741-3.366,7.745-4.869,12.019c-6.199,0.097-12.29,0.5-18.292,1.15  c0.257,0.716,0.591,1.46,0.991,2.226c5.33-0.55,10.82-0.899,16.486-1.011c-3.614,10.787-6.545,23.022-8.901,36.151  c-0.917,0.05-1.831,0.096-2.753,0.157c-15.402,1.507-29.41,4.012-42.161,7.275c3.642-8.892,7.442-16.39,11.185-22.698  c-0.949,0.08-1.901,0.163-2.855,0.245c-3.753,6.49-7.542,14.152-11.158,23.197c-6.099,1.639-11.89,3.458-17.41,5.421  c-1.487,0.89-3.306,1.549-5.288,1.951c-4.477,1.724-8.763,3.543-12.856,5.45c1.003-1.73,2.032-3.423,3.072-5.098  c-0.928,0.011-1.848,0.041-2.76,0.089c-1.348,2.203-2.668,4.45-3.951,6.747c-8.932,4.385-16.929,9.165-24.09,14.161  c-0.073,0.955-0.078,1.913,0.01,2.866c6.607-4.705,13.95-9.229,22.121-13.419c-4.45,8.39-8.386,17.379-11.587,26.902  c0.72,0.381,1.427,0.709,2.123,0.977c3.535-10.591,8-20.506,13.055-29.673c10.754-5.233,22.863-9.891,36.497-13.66  c-3.775,9.826-7.324,21.235-10.418,34.382c0.549,2.179,0.653,4.597,0.715,6.25c0.014,0.371,0.005,0.813-0.013,1.291  c3.572-16.824,7.897-30.916,12.523-42.678c13.07-3.443,27.499-6.08,43.437-7.639c0.722-0.048,1.436-0.083,2.155-0.124  c-2.386,13.79-4.163,28.486-5.462,43.446c-0.253,0.015-0.505,0.025-0.759,0.041c-18.663,1.138-36.012,3.609-51.902,7.096  c-0.031,0.712-0.09,1.517-0.174,2.418c15.949-3.526,33.405-6.029,52.219-7.176c0.137-0.009,0.273-0.014,0.41-0.022  c-1.378,16.521-2.186,33.302-2.607,49.467c-3.145,0.056-6.24,0.132-9.312,0.216c-0.296,0.63-0.646,1.405-1.031,2.306  c3.408-0.1,6.83-0.187,10.285-0.247c-0.241,10.058-0.336,19.861-0.325,29.186c0.004,3.628,0.029,7.216,0.062,10.78  c0.8,0.32,1.612,0.606,2.435,0.857C191.61,242.161,191.665,228.416,191.989,214.536z"
     fill="#1E6B9D" /><path
     id="path104"
     d="M191.989,214.536c8.514-0.129,17.18-0.124,25.941-0.023c-0.297-0.778-0.59-1.546-0.878-2.3  c-8.555-0.086-16.905-0.07-25.007,0.052c0.423-16.595,1.233-33.336,2.575-49.561c18.794-0.99,36.741-0.383,53.43,1.223  c1.018,10.86,1.711,21.813,2.183,32.702c0.825,0.137,1.645,0.277,2.458,0.419c-0.473-10.801-1.189-21.833-2.23-32.885  c8.491,0.872,16.64,2,24.401,3.299c-0.079-0.85-0.166-1.661-0.261-2.418c-7.758-1.287-15.898-2.401-24.375-3.262  c-0.074-0.754-0.156-1.507-0.233-2.26c-0.806-0.049-1.614-0.147-2.423-0.292c0.079,0.774,0.174,1.542,0.25,2.318  c-16.574-1.576-34.374-2.168-53.002-1.204c1.306-15.152,3.086-29.816,5.456-43.451c14.609-0.704,28.436-0.093,41.372,1.438  c0.155,0.797,0.287,1.618,0.438,2.419c0.794,0.066,1.613,0.178,2.447,0.319c-0.151-0.811-0.297-1.627-0.454-2.435  c10.124,1.298,19.673,3.161,28.622,5.382c0.111-0.73,0.166-1.523,0.18-2.361c-9.148-2.255-18.92-4.136-29.275-5.432  c-1.223-6.092-2.59-12.071-4.105-17.908c-0.823-0.05-1.64-0.101-2.439-0.148c1.514,5.771,2.885,11.7,4.112,17.764  c-12.687-1.465-26.211-2.051-40.479-1.396c2.383-13.208,5.339-25.399,8.976-36.059c0.475-0.003,0.941-0.02,1.417-0.02  c0.096,0,0.186,0,0.281,0c6.954,0,13.584,0.217,19.908,0.613c0.049,0.139,0.094,0.282,0.142,0.421  c0.701-1.705,0.92-3.218,0.848-4.53c-0.601-1.634-1.216-3.253-1.85-4.848c-0.625-0.79-1.166-1.199-1.166-1.199  c-0.749-0.499-1.561-0.938-2.398-1.351c1.247,2.962,2.44,5.995,3.571,9.11c-6.073-0.362-12.415-0.561-19.055-0.561  c-0.091,0-0.191,0-0.283,0c-0.197,0-0.393,0.004-0.59,0.006c1.498-4.179,3.115-8.087,4.841-11.729  c-0.814-0.104-1.63-0.192-2.445-0.263c-1.74,3.741-3.366,7.745-4.869,12.019c-6.199,0.097-12.29,0.5-18.292,1.15  c0.257,0.716,0.591,1.46,0.991,2.226c5.33-0.55,10.82-0.899,16.486-1.011c-3.614,10.787-6.545,23.022-8.901,36.151  c-0.917,0.05-1.831,0.096-2.753,0.157c-15.402,1.507-29.41,4.012-42.161,7.275c3.642-8.892,7.442-16.39,11.185-22.698  c-0.949,0.08-1.901,0.163-2.855,0.245c-3.753,6.49-7.542,14.152-11.158,23.197c-6.099,1.639-11.89,3.458-17.41,5.421  c-1.487,0.89-3.306,1.549-5.288,1.951c-4.477,1.724-8.763,3.543-12.856,5.45c1.003-1.73,2.032-3.423,3.072-5.098  c-0.928,0.011-1.848,0.041-2.76,0.089c-1.348,2.203-2.668,4.45-3.951,6.747c-8.932,4.385-16.929,9.165-24.09,14.161  c-0.073,0.955-0.078,1.913,0.01,2.866c6.607-4.705,13.95-9.229,22.121-13.419c-4.45,8.39-8.386,17.379-11.587,26.902  c0.72,0.381,1.427,0.709,2.123,0.977c3.535-10.591,8-20.506,13.055-29.673c10.754-5.233,22.863-9.891,36.497-13.66  c-3.775,9.826-7.324,21.235-10.418,34.382c0.549,2.179,0.653,4.597,0.715,6.25c0.014,0.371,0.005,0.813-0.013,1.291  c3.572-16.824,7.897-30.916,12.523-42.678c13.07-3.443,27.499-6.08,43.437-7.639c0.722-0.048,1.436-0.083,2.155-0.124  c-2.386,13.79-4.163,28.486-5.462,43.446c-0.253,0.015-0.505,0.025-0.759,0.041c-18.663,1.138-36.012,3.609-51.902,7.096  c-0.031,0.712-0.09,1.517-0.174,2.418c15.949-3.526,33.405-6.029,52.219-7.176c0.137-0.009,0.273-0.014,0.41-0.022  c-1.378,16.521-2.186,33.302-2.607,49.467c-3.145,0.056-6.24,0.132-9.312,0.216c-0.296,0.63-0.646,1.405-1.031,2.306  c3.408-0.1,6.83-0.187,10.285-0.247c-0.241,10.058-0.336,19.861-0.325,29.186c0.004,3.628,0.029,7.216,0.062,10.78  c0.8,0.32,1.612,0.606,2.435,0.857C191.61,242.161,191.665,228.416,191.989,214.536z"
     fill="#FFFFFF" /><g
     id="g106">
	<polygon
   id="polygon108"
   points="496.165,90.894 449.038,216.642 401.912,90.894 374.456,90.894 374.456,242.458 393.307,242.458    393.307,116.595 440.489,242.458 449.038,242.458 457.587,242.458 504.77,116.595 504.77,242.458 523.62,242.458 523.62,90.894     "
   fill="#1E6B9D" />
	<path
   id="path110"
   d="M663.005,135.093h-19.26c0,0-1.229-27.865-31.144-30.734c-29.915-2.869-42.619,16.39-39.34,27.455   c3.278,11.065,8.196,15.163,39.34,22.539c31.144,7.376,56.551,15.572,56.551,42.208s-17.212,49.174-59.829,49.174   c-45.076,0-59.83-30.677-61.469-53.625h19.261c0,0,0.819,36.414,43.437,36.004c42.618-0.409,46.306-30.324,32.373-41.389   c-13.932-11.064-21.72-10.245-36.471-13.523c-14.752-3.279-44.667-11.473-49.994-27.455c-5.327-15.983-3.689-35.652,14.342-48.356   c18.031-12.703,65.978-16.801,84.418,11.064C662.186,120.341,663.005,133.044,663.005,135.093z"
   fill="#1E6B9D" />
	<path
   id="path112"
   d="M795.368,242.458h20.899L757.257,90.894h-11.063h-11.064l-59.011,151.564h20.899l16.847-45.486h64.657   L795.368,242.458z M720.261,179.702l25.933-70.016l25.932,70.016H720.261z"
   fill="#1E6B9D" />
</g><g
     id="g114">
	<path
   id="path116"
   d="M387.082,295.785c-3.766,0-6.811-1.193-9.137-3.582c-2.326-2.388-3.489-5.521-3.489-9.402   c0-3.892,1.188-7.034,3.563-9.428s5.484-3.59,9.324-3.59c2.966,0,5.518,0.756,7.654,2.265c2.137,1.51,3.39,3.445,3.757,5.805   h-3.544c-0.345-1.633-1.22-2.895-2.622-3.783c-1.403-0.89-3.225-1.333-5.464-1.333c-2.648,0-4.791,0.93-6.427,2.793   c-1.637,1.861-2.456,4.302-2.456,7.322c0,3.209,0.791,5.693,2.373,7.447c1.582,1.756,3.813,2.635,6.694,2.635   c2.795,0,5.053-0.93,6.776-2.784c0.271-0.292,0.517-0.599,0.739-0.924c0.295-0.436,0.544-1.045,0.748-1.829   c0.203-0.782,0.304-1.526,0.304-2.23v-0.302h-8.509v-2.818h11.882v13.052h-2.289l-0.886-3.104l-0.203,0.219   C393.642,294.594,390.712,295.785,387.082,295.785z"
   fill="#97999C" />
	<path
   id="path118"
   d="M408.899,270.454h1.828h10.803c2.879,0,5.07,0.567,6.573,1.703c1.502,1.135,2.251,2.798,2.251,4.99   c0,2.158-0.78,3.847-2.344,5.066c-0.395,0.302-0.818,0.571-1.274,0.806l0.61,0.267c1.647,0.861,2.505,2.311,2.566,4.347   l0.148,4.495c0.024,0.738,0.128,1.271,0.313,1.594c0.186,0.324,0.542,0.604,1.07,0.838v0.538h-4.519   c-0.1-0.201-0.197-0.728-0.295-1.578c-0.099-0.85-0.172-1.795-0.221-2.835l-0.084-1.945c-0.049-1.532-0.461-2.625-1.234-3.28   c-0.776-0.653-2.044-0.98-3.803-0.98h-8.714v10.635h-1.828h-1.848V270.454z M412.575,281.593h9.084c1.699,0,2.941-0.338,3.73-1.016   c0.788-0.676,1.182-1.746,1.182-3.212c0-1.419-0.417-2.461-1.248-3.12c-0.83-0.66-2.144-0.989-3.941-0.989h-8.807V281.593z"
   fill="#97999C" />
	<path
   id="path120"
   d="M459.584,286.071c0,3.043-0.941,5.422-2.825,7.14c-1.884,1.716-4.499,2.574-7.848,2.574   c-3.483,0-6.136-0.825-7.958-2.474c-1.823-1.65-2.734-4.063-2.734-7.24v-15.617h1.83h1.845v15.366c0,2.293,0.598,4.035,1.793,5.225   c1.194,1.191,2.935,1.787,5.225,1.787c2.289,0,4.028-0.596,5.215-1.787c1.189-1.189,1.784-2.932,1.784-5.225v-15.366h1.827h1.847   V286.071z"
   fill="#97999C" />
	<path
   id="path122"
   d="M468.131,270.454h1.828h10.045c2.636,0,4.693,0.602,6.176,1.804c1.483,1.201,2.227,2.865,2.227,4.989   c0,2.339-0.743,4.168-2.227,5.486c-1.482,1.319-3.54,1.979-6.176,1.979c-3.459-0.011-6.192,0-8.199,0.033v10.367h-1.827h-1.847   V270.454z M471.805,281.861h7.295c1.906,0,3.305-0.366,4.191-1.099s1.329-1.882,1.329-3.447c0-1.388-0.442-2.401-1.329-3.045   s-2.285-0.965-4.191-0.965h-7.295V281.861z"
   fill="#97999C" />
	<path
   id="path124"
   d="M499.926,292.203c-2.437-2.388-3.656-5.521-3.656-9.402c0-3.892,1.22-7.034,3.656-9.428   c2.438-2.394,5.626-3.59,9.563-3.59c3.964,0,7.163,1.196,9.594,3.59c2.43,2.394,3.647,5.536,3.647,9.428   c0,3.881-1.218,7.015-3.647,9.402c-2.431,2.389-5.63,3.582-9.594,3.582C505.552,295.785,502.364,294.592,499.926,292.203z    M516.341,290.064c1.736-1.846,2.603-4.268,2.603-7.264c0-3.009-0.866-5.438-2.603-7.29c-1.736-1.851-4.02-2.774-6.852-2.774   c-2.818,0-5.095,0.924-6.831,2.774c-1.734,1.852-2.604,4.281-2.604,7.29c0,2.996,0.869,5.418,2.604,7.264   c1.736,1.845,4.013,2.768,6.831,2.768C512.321,292.832,514.604,291.909,516.341,290.064z"
   fill="#97999C" />
	<path
   id="path126"
   d="M544.992,295.113v-24.659h19.851v1.477v1.476h-16.176v7.533h14.773v1.475v1.478h-14.773v8.271h16.379v1.476   v1.476H544.992z"
   fill="#97999C" />
	<path
   id="path128"
   d="M577.248,295.113h-1.988h-2.009v-24.659h2.962h2.961l8.71,20.986h-0.001l8.629-20.986h2.96h2.963v24.659   h-1.99h-2.008v-20.868h-0.016l-8.582,20.868h-1.986h-1.989l-8.609-20.802h-0.006V295.113z"
   fill="#97999C" />
	<path
   id="path130"
   d="M612.263,270.454h1.829h10.044c2.636,0,4.693,0.602,6.177,1.804c1.483,1.201,2.226,2.865,2.226,4.989   c0,2.339-0.742,4.168-2.226,5.486c-1.483,1.319-3.541,1.979-6.177,1.979c-3.459-0.011-6.192,0-8.198,0.033v10.367h-1.827h-1.848   V270.454z M615.938,281.861h7.295c1.907,0,3.305-0.366,4.191-1.099c0.886-0.732,1.33-1.882,1.33-3.447   c0-1.388-0.444-2.401-1.33-3.045c-0.887-0.644-2.284-0.965-4.191-0.965h-7.295V281.861z"
   fill="#97999C" />
	<path
   id="path132"
   d="M639.902,270.454h1.829h10.802c2.88,0,5.071,0.567,6.573,1.703c1.503,1.135,2.254,2.798,2.254,4.99   c0,2.158-0.783,3.847-2.346,5.066c-0.395,0.302-0.817,0.571-1.274,0.806l0.61,0.267c1.649,0.861,2.505,2.311,2.565,4.347   l0.149,4.495c0.023,0.738,0.128,1.271,0.313,1.594c0.186,0.324,0.541,0.604,1.07,0.838v0.538h-4.519   c-0.1-0.201-0.196-0.728-0.294-1.578c-0.099-0.85-0.173-1.795-0.223-2.835l-0.081-1.945c-0.049-1.532-0.462-2.625-1.237-3.28   c-0.774-0.653-2.044-0.98-3.803-0.98h-8.715v10.635h-1.827h-1.849V270.454z M643.578,281.593h9.085c1.698,0,2.94-0.338,3.73-1.016   c0.788-0.676,1.181-1.746,1.181-3.212c0-1.419-0.415-2.461-1.246-3.12c-0.831-0.66-2.145-0.989-3.942-0.989h-8.808V281.593z"
   fill="#97999C" />
	<path
   id="path134"
   d="M668.313,295.113v-24.659h19.849v1.477v1.476h-16.175v7.533h14.771v1.475v1.478h-14.771v8.271h16.377v1.476   v1.476H668.313z"
   fill="#97999C" />
	<path
   id="path136"
   d="M712.044,277.601c-0.16-1.555-0.833-2.755-2.022-3.599c-1.187-0.844-2.783-1.266-4.79-1.266   c-2.068,0-3.638,0.363-4.708,1.089c-1.071,0.727-1.608,1.79-1.608,3.188c0,0.951,0.359,1.661,1.072,2.131   c0.714,0.47,2.148,0.934,4.303,1.393l4.728,1.023c2.536,0.548,4.346,1.358,5.43,2.433c1.087,1.063,1.631,2.565,1.631,4.513   c0,2.237-0.933,4.009-2.799,5.317c-1.865,1.309-4.392,1.963-7.581,1.963c-3.548,0-6.317-0.755-8.313-2.266   c-1.945-1.486-2.918-3.522-2.918-6.105v-0.185h3.378c0.063,1.789,0.777,3.17,2.144,4.143c1.369,0.975,3.272,1.46,5.711,1.46   c2.253,0,3.967-0.352,5.135-1.057c1.172-0.704,1.757-1.738,1.757-3.104c0-1.186-0.385-2.063-1.154-2.634   c-0.765-0.56-2.306-1.09-4.623-1.593l-4.733-1.024c-2.389-0.514-4.097-1.229-5.118-2.147c-1.019-0.917-1.528-2.185-1.528-3.808   c0-2.36,0.885-4.229,2.649-5.611c1.766-1.381,4.149-2.071,7.152-2.071c3.053,0,5.48,0.693,7.29,2.081   c1.809,1.386,2.774,3.299,2.897,5.736H712.044z"
   fill="#97999C" />
	<path
   id="path138"
   d="M730.977,270.454h2.088h2.105l9.747,24.659h-1.971h-1.972l-2.767-7.146h-10.837l-2.851,7.146h-1.888h-1.904   L730.977,270.454z M728.538,285.015h8.542l-4.187-10.938h0.013L728.538,285.015z"
   fill="#97999C" />
	<path
   id="path140"
   d="M752.256,270.454h1.829h10.801c2.882,0,5.072,0.567,6.574,1.703c1.502,1.135,2.253,2.798,2.253,4.99   c0,2.158-0.783,3.847-2.347,5.066c-0.394,0.302-0.817,0.571-1.272,0.806l0.609,0.267c1.648,0.861,2.506,2.311,2.566,4.347   l0.147,4.495c0.025,0.738,0.131,1.271,0.313,1.594c0.186,0.324,0.543,0.604,1.072,0.838v0.538h-4.518   c-0.1-0.201-0.198-0.728-0.297-1.578c-0.098-0.85-0.173-1.795-0.22-2.835l-0.083-1.945c-0.05-1.532-0.461-2.625-1.237-3.28   c-0.774-0.653-2.042-0.98-3.802-0.98h-8.715v10.635h-1.828h-1.848V270.454z M755.932,281.593h9.084c1.7,0,2.941-0.338,3.73-1.016   c0.788-0.676,1.182-1.746,1.182-3.212c0-1.419-0.416-2.461-1.246-3.12c-0.832-0.66-2.146-0.989-3.941-0.989h-8.809V281.593z"
   fill="#97999C" />
	<path
   id="path142"
   d="M387.082,295.785c-3.766,0-6.811-1.193-9.137-3.582c-2.326-2.388-3.489-5.521-3.489-9.402   c0-3.892,1.188-7.034,3.563-9.428s5.484-3.59,9.324-3.59c2.966,0,5.518,0.756,7.654,2.265c2.137,1.51,3.39,3.445,3.757,5.805   h-3.544c-0.345-1.633-1.22-2.895-2.622-3.783c-1.403-0.89-3.225-1.333-5.464-1.333c-2.648,0-4.791,0.93-6.427,2.793   c-1.637,1.861-2.456,4.302-2.456,7.322c0,3.209,0.791,5.693,2.373,7.447c1.582,1.756,3.813,2.635,6.694,2.635   c2.795,0,5.053-0.93,6.776-2.784c0.271-0.292,0.517-0.599,0.739-0.924c0.295-0.436,0.544-1.045,0.748-1.829   c0.203-0.782,0.304-1.526,0.304-2.23v-0.302h-8.509v-2.818h11.882v13.052h-2.289l-0.886-3.104l-0.203,0.219   C393.642,294.594,390.712,295.785,387.082,295.785z"
   fill="#97999C" />
	<path
   id="path144"
   d="M408.899,270.454h1.828h10.803c2.879,0,5.07,0.567,6.573,1.703c1.502,1.135,2.251,2.798,2.251,4.99   c0,2.158-0.78,3.847-2.344,5.066c-0.395,0.302-0.818,0.571-1.274,0.806l0.61,0.267c1.647,0.861,2.505,2.311,2.566,4.347   l0.148,4.495c0.024,0.738,0.128,1.271,0.313,1.594c0.186,0.324,0.542,0.604,1.07,0.838v0.538h-4.519   c-0.1-0.201-0.197-0.728-0.295-1.578c-0.099-0.85-0.172-1.795-0.221-2.835l-0.084-1.945c-0.049-1.532-0.461-2.625-1.234-3.28   c-0.776-0.653-2.044-0.98-3.803-0.98h-8.714v10.635h-1.828h-1.848V270.454z M412.575,281.593h9.084c1.699,0,2.941-0.338,3.73-1.016   c0.788-0.676,1.182-1.746,1.182-3.212c0-1.419-0.417-2.461-1.248-3.12c-0.83-0.66-2.144-0.989-3.941-0.989h-8.807V281.593z"
   fill="#97999C" />
	<path
   id="path146"
   d="M459.584,286.071c0,3.043-0.941,5.422-2.825,7.14c-1.884,1.716-4.499,2.574-7.848,2.574   c-3.483,0-6.136-0.825-7.958-2.474c-1.823-1.65-2.734-4.063-2.734-7.24v-15.617h1.83h1.845v15.366c0,2.293,0.598,4.035,1.793,5.225   c1.194,1.191,2.935,1.787,5.225,1.787c2.289,0,4.028-0.596,5.215-1.787c1.189-1.189,1.784-2.932,1.784-5.225v-15.366h1.827h1.847   V286.071z"
   fill="#97999C" />
	<path
   id="path148"
   d="M468.131,270.454h1.828h10.045c2.636,0,4.693,0.602,6.176,1.804c1.483,1.201,2.227,2.865,2.227,4.989   c0,2.339-0.743,4.168-2.227,5.486c-1.482,1.319-3.54,1.979-6.176,1.979c-3.459-0.011-6.192,0-8.199,0.033v10.367h-1.827h-1.847   V270.454z M471.805,281.861h7.295c1.906,0,3.305-0.366,4.191-1.099s1.329-1.882,1.329-3.447c0-1.388-0.442-2.401-1.329-3.045   s-2.285-0.965-4.191-0.965h-7.295V281.861z"
   fill="#97999C" />
	<path
   id="path150"
   d="M499.926,292.203c-2.437-2.388-3.656-5.521-3.656-9.402c0-3.892,1.22-7.034,3.656-9.428   c2.438-2.394,5.626-3.59,9.563-3.59c3.964,0,7.163,1.196,9.594,3.59c2.43,2.394,3.647,5.536,3.647,9.428   c0,3.881-1.218,7.015-3.647,9.402c-2.431,2.389-5.63,3.582-9.594,3.582C505.552,295.785,502.364,294.592,499.926,292.203z    M516.341,290.064c1.736-1.846,2.603-4.268,2.603-7.264c0-3.009-0.866-5.438-2.603-7.29c-1.736-1.851-4.02-2.774-6.852-2.774   c-2.818,0-5.095,0.924-6.831,2.774c-1.734,1.852-2.604,4.281-2.604,7.29c0,2.996,0.869,5.418,2.604,7.264   c1.736,1.845,4.013,2.768,6.831,2.768C512.321,292.832,514.604,291.909,516.341,290.064z"
   fill="#97999C" />
	<path
   id="path152"
   d="M544.992,295.113v-24.659h19.851v1.477v1.476h-16.176v7.533h14.773v1.475v1.478h-14.773v8.271h16.379v1.476   v1.476H544.992z"
   fill="#97999C" />
	<path
   id="path154"
   d="M577.248,295.113h-1.988h-2.009v-24.659h2.962h2.961l8.71,20.986h-0.001l8.629-20.986h2.96h2.963v24.659   h-1.99h-2.008v-20.868h-0.016l-8.582,20.868h-1.986h-1.989l-8.609-20.802h-0.006V295.113z"
   fill="#97999C" />
	<path
   id="path156"
   d="M612.263,270.454h1.829h10.044c2.636,0,4.693,0.602,6.177,1.804c1.483,1.201,2.226,2.865,2.226,4.989   c0,2.339-0.742,4.168-2.226,5.486c-1.483,1.319-3.541,1.979-6.177,1.979c-3.459-0.011-6.192,0-8.198,0.033v10.367h-1.827h-1.848   V270.454z M615.938,281.861h7.295c1.907,0,3.305-0.366,4.191-1.099c0.886-0.732,1.33-1.882,1.33-3.447   c0-1.388-0.444-2.401-1.33-3.045c-0.887-0.644-2.284-0.965-4.191-0.965h-7.295V281.861z"
   fill="#97999C" />
	<path
   id="path158"
   d="M639.902,270.454h1.829h10.802c2.88,0,5.071,0.567,6.573,1.703c1.503,1.135,2.254,2.798,2.254,4.99   c0,2.158-0.783,3.847-2.346,5.066c-0.395,0.302-0.817,0.571-1.274,0.806l0.61,0.267c1.649,0.861,2.505,2.311,2.565,4.347   l0.149,4.495c0.023,0.738,0.128,1.271,0.313,1.594c0.186,0.324,0.541,0.604,1.07,0.838v0.538h-4.519   c-0.1-0.201-0.196-0.728-0.294-1.578c-0.099-0.85-0.173-1.795-0.223-2.835l-0.081-1.945c-0.049-1.532-0.462-2.625-1.237-3.28   c-0.774-0.653-2.044-0.98-3.803-0.98h-8.715v10.635h-1.827h-1.849V270.454z M643.578,281.593h9.085c1.698,0,2.94-0.338,3.73-1.016   c0.788-0.676,1.181-1.746,1.181-3.212c0-1.419-0.415-2.461-1.246-3.12c-0.831-0.66-2.145-0.989-3.942-0.989h-8.808V281.593z"
   fill="#97999C" />
	<path
   id="path160"
   d="M668.313,295.113v-24.659h19.849v1.477v1.476h-16.175v7.533h14.771v1.475v1.478h-14.771v8.271h16.377v1.476   v1.476H668.313z"
   fill="#97999C" />
	<path
   id="path162"
   d="M712.044,277.601c-0.16-1.555-0.833-2.755-2.022-3.599c-1.187-0.844-2.783-1.266-4.79-1.266   c-2.068,0-3.638,0.363-4.708,1.089c-1.071,0.727-1.608,1.79-1.608,3.188c0,0.951,0.359,1.661,1.072,2.131   c0.714,0.47,2.148,0.934,4.303,1.393l4.728,1.023c2.536,0.548,4.346,1.358,5.43,2.433c1.087,1.063,1.631,2.565,1.631,4.513   c0,2.237-0.933,4.009-2.799,5.317c-1.865,1.309-4.392,1.963-7.581,1.963c-3.548,0-6.317-0.755-8.313-2.266   c-1.945-1.486-2.918-3.522-2.918-6.105v-0.185h3.378c0.063,1.789,0.777,3.17,2.144,4.143c1.369,0.975,3.272,1.46,5.711,1.46   c2.253,0,3.967-0.352,5.135-1.057c1.172-0.704,1.757-1.738,1.757-3.104c0-1.186-0.385-2.063-1.154-2.634   c-0.765-0.56-2.306-1.09-4.623-1.593l-4.733-1.024c-2.389-0.514-4.097-1.229-5.118-2.147c-1.019-0.917-1.528-2.185-1.528-3.808   c0-2.36,0.885-4.229,2.649-5.611c1.766-1.381,4.149-2.071,7.152-2.071c3.053,0,5.48,0.693,7.29,2.081   c1.809,1.386,2.774,3.299,2.897,5.736H712.044z"
   fill="#97999C" />
	<path
   id="path164"
   d="M730.977,270.454h2.088h2.105l9.747,24.659h-1.971h-1.972l-2.767-7.146h-10.837l-2.851,7.146h-1.888h-1.904   L730.977,270.454z M728.538,285.015h8.542l-4.187-10.938h0.013L728.538,285.015z"
   fill="#97999C" />
	<path
   id="path166"
   d="M752.256,270.454h1.829h10.801c2.882,0,5.072,0.567,6.574,1.703c1.502,1.135,2.253,2.798,2.253,4.99   c0,2.158-0.783,3.847-2.347,5.066c-0.394,0.302-0.817,0.571-1.272,0.806l0.609,0.267c1.648,0.861,2.506,2.311,2.566,4.347   l0.147,4.495c0.025,0.738,0.131,1.271,0.313,1.594c0.186,0.324,0.543,0.604,1.072,0.838v0.538h-4.518   c-0.1-0.201-0.198-0.728-0.297-1.578c-0.098-0.85-0.173-1.795-0.22-2.835l-0.083-1.945c-0.05-1.532-0.461-2.625-1.237-3.28   c-0.774-0.653-2.042-0.98-3.802-0.98h-8.715v10.635h-1.828h-1.848V270.454z M755.932,281.593h9.084c1.7,0,2.941-0.338,3.73-1.016   c0.788-0.676,1.182-1.746,1.182-3.212c0-1.419-0.416-2.461-1.246-3.12c-0.832-0.66-2.146-0.989-3.941-0.989h-8.809V281.593z"
   fill="#97999C" />
	<path
   id="path168"
   d="M782.021,270.454h1.828h1.845v24.659h-1.828h-1.845V270.454z"
   fill="#97999C" />
	<path
   id="path170"
   d="M797.74,292.203c-2.437-2.388-3.656-5.521-3.656-9.402c0-3.892,1.22-7.034,3.656-9.428   c2.439-2.394,5.626-3.59,9.565-3.59c3.964,0,7.161,1.196,9.594,3.59c2.429,2.394,3.645,5.536,3.645,9.428   c0,3.881-1.216,7.015-3.645,9.402c-2.433,2.389-5.63,3.582-9.594,3.582C803.366,295.785,800.18,294.592,797.74,292.203z    M814.154,290.064c1.737-1.846,2.604-4.268,2.604-7.264c0-3.009-0.866-5.438-2.604-7.29c-1.733-1.851-4.018-2.774-6.849-2.774   c-2.82,0-5.097,0.924-6.832,2.774c-1.735,1.852-2.603,4.281-2.603,7.29c0,2.996,0.867,5.418,2.603,7.264   c1.735,1.845,4.012,2.768,6.832,2.768C810.137,292.832,812.421,291.909,814.154,290.064z"
   fill="#97999C" />
</g></g>
</svg>